<?xml version="1.0" standalone="no"?>
<!DOCTYPE svg PUBLIC "-//W3C//DTD SVG 20010904//EN"
 "http://www.w3.org/TR/2001/REC-SVG-20010904/DTD/svg10.dtd">
<svg version="1.0" xmlns="http://www.w3.org/2000/svg"
 width="512.000000pt" height="512.000000pt" viewBox="0 0 512.000000 512.000000"
 preserveAspectRatio="xMidYMid meet">
<metadata>
Created by potrace 1.14, written by Peter Selinger 2001-2017
</metadata>
<g transform="translate(0.000000,512.000000) scale(0.100000,-0.100000)"
fill="#000000" stroke="none">
<path d="M1 3908 c1 -722 5 -1175 10 -1120 18 201 76 463 144 648 54 147 184
404 271 534 242 362 572 660 948 855 299 156 633 255 956 284 57 5 -384 9
-1117 10 l-1213 1 1 -1212z"/>
<path d="M2740 5113 c599 -43 1167 -298 1597 -716 442 -429 709 -983 772
-1597 5 -53 9 374 10 1118 l1 1202 -1212 -2 c-667 -1 -1193 -3 -1168 -5z"/>
<path d="M2970 4268 c-79 -145 -197 -357 -262 -473 l-117 -210 120 -3 c65 -1
119 -6 119 -11 0 -5 -40 -81 -89 -170 l-89 -161 572 0 571 0 115 -115 115
-115 -293 0 -292 0 0 -375 0 -375 440 0 440 0 0 -40 0 -40 180 0 180 0 -19 37
c-10 21 -107 198 -215 393 -108 195 -196 358 -196 362 0 4 54 9 119 10 l120 3
-258 468 c-142 258 -262 468 -266 468 -6 0 -105 -174 -302 -534 -41 -76 -77
-136 -79 -135 -9 9 -174 312 -174 319 0 5 54 10 119 11 l120 3 -260 470 c-142
259 -263 471 -267 473 -4 1 -72 -116 -152 -260z"/>
<path d="M1853 3003 l-713 -3 0 -225 0 -225 960 0 960 0 -2 228 -3 227 -245 0
c-135 0 -566 -1 -957 -2z"/>
<path d="M1 1213 l-1 -1213 1213 1 c733 1 1174 5 1117 10 -378 34 -773 165
-1105 366 -315 192 -631 506 -839 833 -64 100 -186 351 -231 474 -68 185 -126
447 -144 648 -5 55 -9 -398 -10 -1119z"/>
<path d="M5110 2353 c-1 -198 -101 -590 -215 -843 -258 -573 -746 -1055 -1315
-1298 -264 -113 -514 -175 -830 -205 -19 -2 506 -5 1168 -5 l1202 -2 0 1200
c0 660 -2 1200 -5 1200 -3 0 -5 -21 -5 -47z"/>
<path d="M4042 2050 c9 -89 59 -120 196 -120 l72 0 0 85 0 85 -136 0 -137 0 5
-50z"/>
<path d="M1440 1896 c-145 -40 -239 -141 -270 -290 -25 -122 18 -245 116 -335
71 -65 144 -93 244 -93 142 0 265 76 329 203 81 161 28 360 -122 463 -86 59
-200 79 -297 52z m202 -185 c56 -39 82 -85 86 -156 5 -71 -17 -126 -67 -168
-97 -81 -248 -50 -308 62 -52 100 -12 220 92 276 45 24 152 17 197 -14z"/>
<path d="M3585 1896 c-100 -32 -180 -98 -228 -191 -30 -56 -32 -67 -32 -165 0
-95 3 -110 27 -157 57 -107 138 -172 253 -200 225 -55 449 122 448 354 -1 122
-49 222 -143 297 -82 66 -227 93 -325 62z"/>
</g>
</svg>
