<?xml version="1.0" standalone="no"?>
<!DOCTYPE svg PUBLIC "-//W3C//DTD SVG 20010904//EN"
 "http://www.w3.org/TR/2001/REC-SVG-20010904/DTD/svg10.dtd">
<svg version="1.0" xmlns="http://www.w3.org/2000/svg"
 width="1463.000000pt" height="1463.000000pt" viewBox="0 0 1463.000000 1463.000000"
 preserveAspectRatio="xMidYMid meet">
<metadata>
Created by potrace 1.14, written by Peter Selinger 2001-2017
</metadata>
<g transform="translate(0.000000,1463.000000) scale(0.100000,-0.100000)"
fill="#000000" stroke="none">
<path d="M5545 12421 c-140 -35 -181 -65 -442 -318 -116 -113 -222 -213 -235
-222 -21 -15 -188 -16 -2063 -17 -1122 0 -2062 -4 -2090 -8 -229 -33 -433
-159 -569 -348 -43 -62 -100 -175 -111 -221 -2 -12 -11 -51 -19 -87 -22 -96
-22 -7406 -1 -7487 42 -156 155 -277 311 -335 l59 -22 993 -2 c546 -1 996 -5
1000 -8 3 -4 7 -16 9 -28 18 -117 87 -299 161 -423 205 -344 537 -580 942
-667 102 -22 344 -30 470 -16 142 17 313 70 454 140 373 187 657 547 737 936
12 59 14 62 44 63 161 3 5147 0 5151 -3 2 -3 6 -14 8 -24 18 -85 43 -175 65
-229 18 -44 95 -200 101 -205 4 -3 9 -12 12 -20 3 -8 33 -52 66 -96 197 -267
476 -450 807 -533 44 -11 112 -24 150 -30 69 -10 347 -8 395 3 13 3 42 8 63
11 98 15 264 73 388 135 160 81 365 253 473 397 117 157 214 364 247 532 8 44
16 61 28 62 9 0 237 1 506 1 525 1 555 4 663 53 102 47 193 134 246 235 67
127 64 69 64 1243 0 586 -4 1085 -8 1108 -5 24 -11 58 -14 74 -62 352 -339
687 -676 815 -30 11 -64 25 -75 30 -11 5 -45 19 -75 30 -30 11 -64 25 -75 30
-11 4 -110 43 -220 86 -110 42 -243 94 -295 114 l-94 37 -32 74 c-17 41 -40
94 -52 119 -28 63 -332 760 -342 785 -4 11 -24 55 -44 98 -20 42 -36 79 -36
82 0 2 -13 33 -29 67 -15 35 -50 113 -76 173 -26 61 -58 133 -70 161 -13 28
-76 171 -139 318 -138 317 -149 340 -214 431 -159 225 -420 385 -702 431 -25
4 -425 8 -890 10 -465 1 -848 3 -852 3 -5 1 -8 69 -8 151 0 136 2 150 18 151
9 0 721 0 1582 1 1518 1 1567 1 1635 20 95 27 159 63 225 129 129 129 173 309
120 483 -24 76 -45 109 -535 821 -71 105 -152 224 -180 265 -27 41 -52 77 -55
80 -3 3 -17 21 -29 40 -41 60 -165 173 -237 216 -75 44 -146 74 -239 101 -57
17 -228 18 -3180 20 -2945 2 -3124 1 -3190 -16z m6325 -467 c79 -37 128 -87
218 -219 37 -55 131 -192 208 -305 462 -675 454 -663 454 -681 0 -9 -6 -21
-12 -26 -9 -7 -610 -10 -1708 -10 -1684 0 -1695 0 -1740 -20 -53 -24 -78 -47
-111 -100 l-24 -38 -3 -3377 -2 -3377 -1992 2 -1992 2 -9 40 c-39 179 -136
397 -234 527 -285 377 -698 583 -1164 580 -103 -1 -137 -4 -267 -28 -522 -94
-965 -513 -1092 -1031 l-23 -92 -951 0 c-726 0 -952 3 -958 12 -4 7 -8 237 -8
513 l0 500 168 1 c92 1 173 2 180 2 9 1 12 53 12 225 l0 225 -157 0 c-87 0
-168 0 -181 0 l-22 1 2 2928 3 2927 26 56 c46 99 120 164 229 205 41 15 216
17 2110 18 2256 2 2099 -2 2236 62 83 39 116 67 357 304 98 96 192 183 210
193 30 16 189 17 3102 15 l3070 -3 65 -31z m-537 -2462 c15 -6 27 -9 27 -7 0
7 122 -47 165 -74 22 -13 68 -53 103 -88 50 -51 73 -86 118 -181 30 -64 59
-126 63 -137 5 -11 16 -38 26 -60 9 -22 134 -308 277 -635 143 -327 267 -611
275 -630 72 -158 182 -415 179 -418 -3 -3 -1908 -5 -2783 -2 l-173 0 0 1123 0
1123 848 -1 c613 -1 855 -5 875 -13z m1747 -2764 c113 -44 261 -101 330 -128
386 -150 455 -183 543 -261 53 -47 110 -123 145 -194 26 -53 36 -80 59 -170 3
-11 7 -172 9 -357 l2 -338 -26 -1 c-15 0 -93 0 -174 0 -89 0 -150 -4 -153 -10
-11 -17 -8 -431 3 -438 6 -3 86 -5 180 -5 l169 1 1 -484 0 -484 -23 -27 -23
-27 -496 -3 -496 -2 0 21 c0 23 -29 127 -62 224 -25 72 -95 208 -150 290 -380
564 -1134 775 -1763 492 -399 -179 -699 -540 -790 -949 l-17 -77 -369 0 -369
0 0 1498 c0 824 2 1500 5 1503 3 3 738 5 1633 5 l1627 0 205 -79z m-9195
-2232 c295 -26 597 -232 733 -501 58 -115 80 -183 97 -308 61 -449 -245 -886
-705 -1008 -124 -33 -349 -33 -469 -1 -224 61 -400 179 -549 368 -56 71 -128
242 -159 379 -2 11 -5 69 -7 130 -6 245 79 469 246 646 132 140 348 260 518
286 121 18 164 20 295 9z m8020 -7 c395 -63 715 -383 775 -777 71 -464 -232
-911 -700 -1032 -123 -32 -305 -36 -428 -10 -438 93 -753 460 -756 885 -1 125
6 182 32 275 72 246 256 463 492 576 46 22 172 70 190 72 3 0 22 3 43 7 114
22 230 23 352 4z"/>
<path d="M1697 10134 c-1 -2 -16 -5 -32 -8 -17 -3 -41 -8 -55 -11 -14 -2 -63
-23 -109 -46 -115 -57 -205 -147 -261 -262 -22 -46 -43 -104 -48 -128 -4 -24
-7 -381 -7 -794 l0 -750 29 -75 c70 -181 195 -300 381 -362 l70 -23 1520 0
1520 0 65 24 c120 44 191 89 263 166 74 80 130 202 144 315 9 73 9 1377 0
1455 -14 120 -86 255 -182 343 -69 63 -123 94 -221 129 l-79 27 -1498 1 c-824
1 -1499 0 -1500 -1z m2966 -468 c62 -42 60 -13 59 -767 l0 -688 -22 -31 c-45
-64 47 -60 -1523 -60 -1365 0 -1434 1 -1467 18 -72 39 -69 4 -67 777 l2 693
25 27 c14 15 38 33 53 40 21 9 369 11 1470 11 1399 -1 1443 -2 1470 -20z"/>
<path d="M6350 10129 c-211 -33 -385 -196 -433 -404 -22 -93 -21 -4930 0
-4995 19 -57 65 -106 123 -133 45 -21 57 -21 1105 -22 583 0 1079 3 1103 7 62
11 127 61 157 121 l25 51 0 2458 c0 1630 -3 2474 -10 2506 -39 182 -173 328
-360 393 l-65 23 -800 1 c-440 0 -820 -2 -845 -6z m1601 -467 c18 -23 19 -54
19 -783 l0 -759 -803 0 -803 0 1 753 c0 413 4 762 8 774 4 12 20 26 35 31 15
5 360 8 775 8 l749 -1 19 -23z m-8 -1992 l27 0 -2 -1322 -3 -1323 -800 0 -800
0 -1 1320 0 1320 50 5 c37 4 1265 4 1529 0z"/>
</g>
</svg>
